<svg width="402" height="192" viewBox="0 0 402 192" fill="none" xmlns="http://www.w3.org/2000/svg">
<g filter="url(#filter0_d)">
<path d="M169.8 144H157.44L136.32 63.12H146.52L154.08 93.12L164.04 133.8C168.52 117.4 172.32 103.84 175.44 93.12L183.84 64.32H193.56L202.44 93.12L214.68 134.16C218.36 116.48 221.32 102.84 223.56 93.24L230.4 63.12H240.24L221.28 144H208.8L201 118.44L188.88 78C186.4 87.44 182.56 100.92 177.36 118.44L169.8 144ZM263.337 144H253.857V83.16H263.337V144ZM262.977 59.64C264.177 60.84 264.777 62.32 264.777 64.08C264.777 65.84 264.177 67.32 262.977 68.52C261.777 69.64 260.297 70.2 258.537 70.2C256.777 70.2 255.297 69.64 254.097 68.52C252.977 67.32 252.417 65.84 252.417 64.08C252.417 62.32 252.977 60.84 254.097 59.64C255.297 58.44 256.777 57.84 258.537 57.84C260.297 57.84 261.777 58.44 262.977 59.64ZM307.545 115.92H279.465V107.64H307.545V115.92ZM363.784 108.84H333.304V144H323.584V63.12H367.984V71.64H333.304V100.32H363.784V108.84ZM391.775 144H382.295V83.16H391.775V144ZM391.415 59.64C392.615 60.84 393.215 62.32 393.215 64.08C393.215 65.84 392.615 67.32 391.415 68.52C390.215 69.64 388.735 70.2 386.975 70.2C385.215 70.2 383.735 69.64 382.535 68.52C381.415 67.32 380.855 65.84 380.855 64.08C380.855 62.32 381.415 60.84 382.535 59.64C383.735 58.44 385.215 57.84 386.975 57.84C388.735 57.84 390.215 58.44 391.415 59.64Z" fill="white"/>
</g>
<g filter="url(#filter1_d)">
<path d="M46.1429 123.929C46.1429 115.056 38.9442 107.857 30.0714 107.857C21.1987 107.857 14 115.056 14 123.929C14 132.801 21.1987 140 30.0714 140C38.9442 140 46.1429 132.801 46.1429 123.929ZM89 134.224C87.577 116.395 79.7924 99.5703 67.0692 86.9308C54.4297 74.2076 37.6049 66.423 19.7757 65C19.6083 65 19.5246 65 19.3571 65C18.0179 65 16.6786 65.5022 15.7578 66.423C14.5859 67.4275 14 68.8504 14 70.3571V81.6574C14 84.4196 16.0926 86.6797 18.8549 86.9308C44.385 89.3583 64.6417 109.615 67.0692 135.145C67.3203 137.907 69.5804 140 72.3426 140H83.6429C85.1496 140 86.5725 139.414 87.577 138.242C88.5815 137.154 89.0837 135.731 89 134.224ZM131.857 134.392C130.35 105.095 118.046 77.5558 97.2031 56.7969C76.4442 35.9542 48.9051 23.6495 19.6083 22.1429C19.5246 22.1429 19.4408 22.1429 19.3571 22.1429C18.0179 22.1429 16.6786 22.6451 15.6741 23.6495C14.5859 24.654 14 25.9933 14 27.5V39.4699C14 42.2321 16.1763 44.5759 19.0223 44.7433C67.6551 47.5893 106.411 86.3449 109.173 134.978C109.34 137.824 111.684 140 114.53 140H126.5C128.007 140 129.346 139.414 130.35 138.326C131.439 137.238 131.941 135.815 131.857 134.392Z" fill="black"/>
</g>
<defs>
<filter id="filter0_d" x="122.32" y="57.84" width="270.895" height="94.16" filterUnits="userSpaceOnUse" color-interpolation-filters="sRGB">
<feFlood flood-opacity="0" result="BackgroundImageFix"/>
<feColorMatrix in="SourceAlpha" type="matrix" values="0 0 0 0 0 0 0 0 0 0 0 0 0 0 0 0 0 0 127 0"/>
<feOffset dx="-10" dy="4"/>
<feGaussianBlur stdDeviation="2"/>
<feColorMatrix type="matrix" values="0 0 0 0 0 0 0 0 0 0 0 0 0 0 0 0 0 0 0.25 0"/>
<feBlend mode="normal" in2="BackgroundImageFix" result="effect1_dropShadow"/>
<feBlend mode="normal" in="SourceGraphic" in2="effect1_dropShadow" result="shape"/>
</filter>
<filter id="filter1_d" x="0" y="22.1429" width="131.866" height="125.857" filterUnits="userSpaceOnUse" color-interpolation-filters="sRGB">
<feFlood flood-opacity="0" result="BackgroundImageFix"/>
<feColorMatrix in="SourceAlpha" type="matrix" values="0 0 0 0 0 0 0 0 0 0 0 0 0 0 0 0 0 0 127 0"/>
<feOffset dx="-10" dy="4"/>
<feGaussianBlur stdDeviation="2"/>
<feColorMatrix type="matrix" values="0 0 0 0 0 0 0 0 0 0 0 0 0 0 0 0 0 0 0.25 0"/>
<feBlend mode="normal" in2="BackgroundImageFix" result="effect1_dropShadow"/>
<feBlend mode="normal" in="SourceGraphic" in2="effect1_dropShadow" result="shape"/>
</filter>
</defs>
</svg>
